<svg aria-hidden="true" width="104" height="77" viewBox="0 0 104 77" fill="none" xmlns="http://www.w3.org/2000/svg">
<path fill-rule="evenodd" clip-rule="evenodd" d="M85.9072 0H80.4923L104 17.4048V13.3954L85.9072 0ZM104 3.71592L98.9812 0H104V3.71592ZM104 27.0841L67.4183 0H62.0034L104 31.0936V27.0841ZM104 40.773L48.9295 0H43.5145L104 44.7825V40.773ZM104 54.4619L30.4406 0H25.0255L104 58.4714V54.4619ZM104 68.1508L11.9519 0H6.53656L104 72.1603V68.1508ZM97.4628 77L0 4.83981V8.84925L92.0479 77H97.4628ZM78.9739 77L0 18.5287V22.5381L73.559 77H78.9739ZM60.485 77L0 32.2175V36.227L55.0701 77H60.485ZM41.9961 77L0 45.9064V49.9158L36.5812 77H41.9961ZM23.5074 77L0 59.5953V63.6047L18.0921 77H23.5074ZM5.01853 77L0 73.2841V77H5.01853Z" fill="#581978"/>
</svg>
