<svg aria-hidden="true" width="332" height="20" viewBox="0 0 332 20" fill="none" xmlns="http://www.w3.org/2000/svg">
<path d="M2 2C11.1032 2 11.1032 18 20.2064 18C29.3096 18 29.3096 2 38.4128 2C47.516 2 47.516 18 56.5979 18C65.7014 18 65.7014 2 74.783 2C83.8864 2 83.8864 18 92.968 18C102.071 18 102.071 2 111.174 2C120.278 2 120.278 18 129.381 18C138.484 18 138.484 2 147.587 2C156.69 2 156.69 18 165.794 18C174.897 18 174.897 2 184 2" stroke="#4F4F4F" stroke-width="3" stroke-miterlimit="10" stroke-linecap="round"/>
<path d="M148 2C157.103 2 157.103 18 166.206 18C175.31 18 175.31 2 184.413 2C193.516 2 193.516 18 202.598 18C211.701 18 211.701 2 220.783 2C229.886 2 229.886 18 238.968 18C248.071 18 248.071 2 257.174 2C266.278 2 266.278 18 275.381 18C284.484 18 284.484 2 293.587 2C302.69 2 302.69 18 311.794 18C320.897 18 320.897 2 330 2" stroke="#4F4F4F" stroke-width="3" stroke-miterlimit="10" stroke-linecap="round"/>
</svg>
