<svg aria-hidden="true" width="186" height="21" viewBox="0 0 186 21" fill="none" xmlns="http://www.w3.org/2000/svg">
<path d="M2 2C11.1032 2 11.1032 19 20.2064 19C29.3096 19 29.3096 2 38.4128 2C47.516 2 47.516 19 56.5979 19C65.7014 19 65.7014 2 74.783 2C83.8864 2 83.8864 19 92.968 19C102.071 19 102.071 2 111.174 2C120.278 2 120.278 19 129.381 19C138.484 19 138.484 2 147.587 2C156.69 2 156.69 19 165.794 19C174.897 19 174.897 2 184 2" stroke="#4F4F4F" stroke-width="3" stroke-miterlimit="10" stroke-linecap="round"/>
</svg>
